<?xml version="1.0" standalone="no"?>
<!DOCTYPE svg PUBLIC "-//W3C//DTD SVG 20010904//EN"
 "http://www.w3.org/TR/2001/REC-SVG-20010904/DTD/svg10.dtd">
<svg version="1.0" xmlns="http://www.w3.org/2000/svg"
 width="924.000000pt" height="924.000000pt" viewBox="0 0 924.000000 924.000000"
 preserveAspectRatio="xMidYMid meet">
<metadata>
Created by potrace 1.16, written by Peter Selinger 2001-2019
</metadata>
<g transform="translate(0.000000,924.000000) scale(0.100000,-0.100000)"
fill="#000000" stroke="none">
<path d="M0 4620 l0 -4620 4620 0 4620 0 0 4620 0 4620 -4620 0 -4620 0 0
-4620z m5980 3074 c0 -25 -53 -241 -114 -464 -19 -69 -66 -244 -105 -390 -39
-146 -86 -311 -103 -368 -36 -118 -13 -103 -229 -147 -185 -38 -936 -171
-1184 -211 -94 -14 -398 -69 -438 -78 -31 -7 -93 104 -371 664 -269 541 -280
568 -242 598 6 5 121 26 256 46 360 53 624 94 720 111 47 8 204 33 350 55 695
107 859 132 1035 161 209 33 406 57 418 52 4 -2 7 -15 7 -29z m169 -76 c19
-35 132 -236 251 -448 120 -212 251 -446 293 -520 41 -74 144 -259 229 -410
85 -151 157 -283 161 -293 4 -10 -11 -59 -37 -125 -25 -59 -72 -179 -105 -267
-33 -88 -88 -232 -122 -320 -33 -88 -109 -288 -169 -445 -147 -390 -183 -480
-195 -480 -10 0 -20 13 -70 95 -11 18 -32 50 -46 71 -26 39 -168 268 -316 509
-228 372 -413 696 -413 722 0 40 88 445 145 668 112 438 185 718 210 800 28
94 101 382 111 440 6 39 20 65 33 65 3 0 22 -28 40 -62z m-2862 -868 c270
-540 386 -789 472 -1015 27 -71 90 -236 141 -365 50 -129 100 -257 110 -285 9
-27 47 -124 83 -215 69 -175 106 -272 219 -570 38 -102 87 -230 108 -285 119
-311 429 -1156 562 -1530 39 -110 100 -277 134 -372 56 -151 68 -203 45 -203
-3 0 -60 21 -126 46 -66 25 -145 55 -175 66 -30 11 -60 24 -67 30 -7 5 -31 16
-55 23 -24 7 -101 36 -173 63 -71 27 -238 91 -370 141 -266 102 -635 249 -654
261 -13 8 -58 164 -151 525 -33 127 -80 307 -105 400 -43 161 -108 413 -195
750 -22 83 -59 227 -84 320 -190 726 -424 1668 -631 2533 -15 62 -25 115 -22
118 7 7 625 92 652 90 16 -1 72 -106 282 -526z m2333 -1314 c79 -122 86 -134
194 -315 96 -160 367 -600 449 -727 48 -75 87 -148 87 -161 0 -8 -234 -162
-383 -252 -104 -64 -415 -257 -612 -381 -244 -153 -447 -278 -466 -285 -18 -7
-46 76 -149 425 -28 96 -82 279 -120 405 -104 346 -160 547 -160 570 0 20 16
33 645 501 378 282 438 324 448 317 5 -3 35 -46 67 -97z"/>
</g>
</svg>
