<svg version="1.1" viewBox="0.0 0.0 459.7034120734908 148.26771653543307" fill="none" stroke="none" stroke-linecap="square" stroke-miterlimit="10" xmlns:xlink="http://www.w3.org/1999/xlink" xmlns="http://www.w3.org/2000/svg"><clipPath id="p.0"><path d="m0 0l459.7034 0l0 148.26772l-459.7034 0l0 -148.26772z" clip-rule="nonzero"/></clipPath><g clip-path="url(#p.0)"><path fill="#000000" fill-opacity="0.0" d="m0 0l459.7034 0l0 148.26772l-459.7034 0z" fill-rule="evenodd"/><path fill="#434343" d="m3.1653543 17.142284l17.440834 -2.162632l18.098688 34.902756l41.791706 97.29652l-46.0693 -16.37053z" fill-rule="evenodd"/><path fill="#434343" d="m60.41792 75.82117l25.667599 -18.841434l21.06057 33.049343l-37.514107 21.004066z" fill-rule="evenodd"/><path fill="#434343" d="m88.09704 53.767883l21.7164 34.120674l16.523476 -40.767456l-25.493256 -42.096622z" fill-rule="evenodd"/><path fill="#434343" d="m42.31059 44.906364l46.264935 -7.976902l8.969772 -33.233925l-74.59032 11.077658z" fill-rule="evenodd"/><path fill="#000000" fill-opacity="0.0" d="m151.82677 -12.3044615l345.22833 0l0 148.6614l-345.22833 0z" fill-rule="evenodd"/><path fill="#434343" d="m169.99864 124.376785q-0.75 0 -1.28125 -0.59375q-0.53125 -0.578125 -0.53125 -1.328125l0 -71.890625q0 -0.84375 0.53125 -1.328125q0.53125 -0.484375 1.28125 -0.484375q0.859375 0 1.390625 0.484375q0.53125 0.484375 0.53125 1.328125l0 5.65625q1.8125 -3.09375 5.375 -5.59375q3.578125 -2.515625 8.921875 -2.515625q5.21875 0 9.59375 2.625q4.375 2.609375 6.984375 6.9375q2.609375 4.3125 2.609375 9.640629l0 13.015625q0 5.0 -2.609375 9.484375q-2.609375 4.484375 -6.9375 7.203125q-4.3125 2.71875 -9.4375 2.71875q-4.90625 0 -8.796875 -2.390625q-3.890625 -2.40625 -5.703125 -5.71875l0 30.828125q0 0.75 -0.53125 1.328125q-0.53125 0.59375 -1.390625 0.59375zm16.640625 -28.375q4.046875 0 7.453125 -2.234375q3.421875 -2.25 5.5 -5.875q2.078125 -3.625 2.078125 -7.5625l0 -13.015625q0 -3.9531288 -2.078125 -7.468754q-2.078125 -3.515625 -5.5 -5.75q-3.40625 -2.25 -7.5625 -2.25q-3.625 0 -6.984375 1.875q-3.359375 1.859375 -5.5 5.28125q-2.125 3.40625 -2.125 8.312504l0 16.953125q0 1.8125 1.921875 4.59375q1.921875 2.765625 5.28125 4.953125q3.359375 2.1875 7.515625 2.1875zm33.16516 3.09375q-0.75 0 -1.28125 -0.578125q-0.53125 -0.59375 -0.53125 -1.34375l0 -46.60938q0 -0.84375 0.53125 -1.328125q0.53125 -0.484375 1.28125 -0.484375q0.859375 0 1.390625 0.484375q0.53125 0.484375 0.53125 1.328125l0 5.65625q1.28125 -2.140625 3.296875 -3.953125q2.03125 -1.8125 4.90625 -2.984375q2.890625 -1.171875 6.625 -1.171875l3.9375 0q0.75 0 1.28125 0.53125q0.53125 0.53125 0.53125 1.390625q0 0.75 -0.53125 1.28125q-0.53125 0.53125 -1.28125 0.53125l-3.9375 0q-3.734375 0 -7.15625 1.875q-3.40625 1.859375 -5.546875 5.28125q-2.125 3.40625 -2.125 8.312504l0 29.859375q0 0.75 -0.53125 1.34375q-0.53125 0.578125 -1.390625 0.578125zm45.233078 0.640625q-5.015625 0 -9.343765 -2.71875q-4.3125 -2.71875 -6.9375 -7.140625q-2.609375 -4.4375 -2.609375 -9.546875l0 -13.015625q0 -5.125004 2.5625 -9.500004q2.5625 -4.375 6.875 -7.03125q4.3281403 -2.671875 9.45314 -2.671875q5.109375 0 9.421875 2.625q4.328125 2.609375 6.9375 6.9375q2.625 4.3125 2.625 9.640629l0 13.015625q0 5.0 -2.625 9.484375q-2.609375 4.484375 -6.9375 7.203125q-4.3125 2.71875 -9.421875 2.71875zm0 -3.734375q4.265625 0 7.671875 -2.234375q3.40625 -2.25 5.484375 -5.875q2.09375 -3.625 2.09375 -7.5625l0 -13.015625q0 -3.9531288 -2.03125 -7.468754q-2.03125 -3.515625 -5.5 -5.75q-3.453125 -2.25 -7.71875 -2.25q-4.28125 0 -7.6875 2.25q-3.4062653 2.234375 -5.4375153 5.75q-2.03125 3.515625 -2.03125 7.468754l0 13.015625q0 3.9375 2.03125 7.5625q2.03125 3.625 5.4843903 5.875q3.46875 2.234375 7.640625 2.234375zm46.91925 3.09375q-7.578125 0 -11.578125 -3.515625q-3.984375 -3.53125 -3.984375 -11.3125l0 -58.343754q0 -0.84375 0.578125 -1.328125q0.59375 -0.484375 1.234375 -0.484375q0.734375 0 1.3125 0.484375q0.59375 0.484375 0.59375 1.328125l0 22.828125l14.40625 0q0.75 0 1.28125 0.53125q0.53125 0.53125 0.53125 1.390625q0 0.75 -0.53125 1.28125q-0.53125 0.53125 -1.28125 0.53125l-14.40625 0l0 31.781254q0 6.078125 2.671875 8.59375q2.671875 2.5 9.171875 2.5l2.453125 0q0.75 0 1.28125 0.484375q0.53125 0.484375 0.53125 1.328125q0 0.75 -0.53125 1.34375q-0.53125 0.578125 -1.28125 0.578125l-2.453125 0zm32.21216 0.640625q-6.296875 0 -11.15625 -2.453125q-4.84375 -2.453125 -7.625 -6.765625q-2.765625 -4.328125 -2.765625 -10.1875l0 -13.34375q0 -5.109379 2.609375 -9.421879q2.625 -4.328125 6.9375 -6.890625q4.328125 -2.5625 9.4375 -2.5625q5.015625 0 9.328125 2.515625q4.328125 2.5 6.9375 6.828125q2.609375 4.3125 2.609375 9.859379q0 3.84375 -1.28125 5.546875q-1.265625 1.703125 -3.25 2.078125q-1.96875 0.375 -4.3125 0.375l-25.28125 0l0 5.015625q0 7.25 5.109375 11.46875q5.125 4.203125 12.921875 4.203125q4.46875 0 6.8125 -1.109375q2.359375 -1.125 3.578125 -2.1875q1.234375 -1.078125 2.1875 -1.078125q0.53125 0 0.953125 0.328125q0.4375 0.3125 0.703125 0.75q0.265625 0.421875 0.265625 0.84375q0 0.953125 -1.765625 2.453125q-1.75 1.5 -5.0625 2.625q-3.3125 1.109375 -7.890625 1.109375zm-17.8125 -28.15625l24.0 0q3.9375 0 5.15625 -0.75q1.234375 -0.75 1.234375 -3.203125q0 -3.8281288 -1.859375 -7.453129q-1.859375 -3.640625 -5.28125 -5.984375q-3.40625 -2.34375 -8.0 -2.34375q-4.265625 0 -7.734375 2.140625q-3.46875 2.125 -5.5 5.546875q-2.015625 3.40625 -2.015625 7.453129l0 4.59375zm56.85269 28.15625q-6.1875 0 -10.515625 -3.46875q-4.3125 -3.46875 -4.3125 -10.609375q0 -5.65625 3.140625 -8.6875q3.15625 -3.046875 8.75 -4.21875q5.59375 -1.171875 12.953125 -1.171875l5.984375 0l0 -2.984375q0 -4.0625 -1.390625 -7.890629q-1.390625 -3.84375 -4.484375 -6.34375q-3.09375 -2.515625 -8.203125 -2.515625q-3.3125 0 -5.5625 0.703125q-2.234375 0.6875 -3.5625 1.4375q-1.328125 0.734375 -1.96875 0.734375q-0.859375 0 -1.390625 -0.796875q-0.53125 -0.796875 -0.53125 -1.328125q0 -1.0625 1.96875 -2.078125q1.96875 -1.015625 5.0 -1.703125q3.046875 -0.703125 6.25 -0.703125q6.609375 0 10.453125 2.9375q3.84375 2.9375 5.5 7.578125q1.65625 4.625 1.65625 9.968754l0 28.578125q0 0.75 -0.484375 1.34375q-0.484375 0.578125 -1.34375 0.578125q-0.734375 0 -1.328125 -0.578125q-0.578125 -0.59375 -0.578125 -1.34375l0 -5.546875q-2.671875 3.09375 -6.671875 5.609375q-4.0 2.5 -9.328125 2.5zm-0.109375 -3.734375q4.046875 0 7.71875 -1.96875q3.6875 -1.984375 6.03125 -4.75q2.359375 -2.765625 2.359375 -5.015625l0 -8.953125l-5.875 0q-5.4375 0 -10.296875 0.640625q-4.84375 0.640625 -7.890625 2.828125q-3.03125 2.1875 -3.03125 6.875q0 5.328125 3.1875 7.84375q3.203125 2.5 7.796875 2.5zm35.725006 3.09375q-0.75 0 -1.28125 -0.578125q-0.53125 -0.59375 -0.53125 -1.34375l0 -46.60938q0 -0.84375 0.53125 -1.328125q0.53125 -0.484375 1.28125 -0.484375q0.859375 0 1.390625 0.484375q0.53125 0.484375 0.53125 1.328125l0 5.65625q1.8125 -3.09375 5.375 -5.59375q3.578125 -2.515625 8.921875 -2.515625q5.21875 0 9.59375 2.625q4.375 2.609375 6.984375 6.9375q2.609375 4.3125 2.609375 9.640629l0 29.859375q0 0.96875 -0.59375 1.453125q-0.578125 0.46875 -1.3125 0.46875q-0.640625 0 -1.234375 -0.46875q-0.578125 -0.484375 -0.578125 -1.453125l0 -29.859375q0 -3.9531288 -2.09375 -7.468754q-2.078125 -3.515625 -5.5 -5.75q-3.40625 -2.25 -7.5625 -2.25q-3.625 0 -6.984375 1.875q-3.359375 1.859375 -5.5 5.28125q-2.125 3.40625 -2.125 8.312504l0 29.859375q0 0.75 -0.53125 1.34375q-0.53125 0.578125 -1.390625 0.578125z" fill-rule="nonzero"/></g></svg>